<?xml version="1.0" encoding="UTF-8"?>
<svg width="178px" height="48px" viewBox="0 0 178 48" version="1.1" xmlns="http://www.w3.org/2000/svg" xmlns:xlink="http://www.w3.org/1999/xlink">
    <!-- Generator: Sketch 52.6 (67491) - http://www.bohemiancoding.com/sketch -->
    <title>bottom bread</title>
    <desc>Created with Sketch.</desc>
    <g id="Page-1" stroke="none" stroke-width="1" fill="none" fill-rule="evenodd">
        <g id="bread" transform="translate(91.000000, 24.000000) rotate(45.000000) translate(-91.000000, -24.000000) translate(9.000000, -59.000000)">
            <g id="bottom-bread" transform="translate(15.000000, 18.000000)">
                <path d="M10.0482481,134.099133 C-17.2857617,121.577929 18.7060666,87.5978165 28.8836829,73.9457191 C42.9948934,55.0207972 60.425074,37.6196346 79.5845833,23.8609021 C89.4046002,16.8089554 106.594519,0.230005472 119.342381,0.00270436416 C132.313743,-0.230209117 132.749568,14.6397732 128.843911,22.1042294 C119.130056,40.6615408 106.309557,57.7427981 91.9804339,72.8962053 C86.5046919,78.6937867 19.2396721,143.331487 10.0482481,134.099133 Z" id="Path" fill="#FBD490"></path>
                <path d="M30.8633111,114 C27.849403,114 24.8354948,112.831409 22.539712,110.497049 C20.113613,108.0272 16.1597648,108.0272 13.7336658,110.497049 C12.6495461,111.600719 10.8972094,111.600719 9.81308975,110.497049 C8.72897008,109.39338 8.72897008,107.609443 9.81308975,106.505774 C14.3991101,101.831409 21.8742677,101.831409 26.460288,106.505774 C28.886387,108.975622 32.8402352,108.975622 35.2663342,106.505774 C36.3504539,105.402104 38.1027906,105.402104 39.1869102,106.505774 C40.2710299,107.609443 40.2710299,109.396202 39.1869102,110.497049 C36.8883547,112.831409 33.8772193,114 30.8633111,114 Z" id="Path" fill="#F1B501"></path>
                <path d="M47.8624939,97 C44.8483161,97 41.8313654,95.8348294 39.5381502,93.4988459 C37.1811575,91.0979738 33.088309,91.1036163 30.7340892,93.4988459 C29.6498725,94.6019492 27.8973791,94.6019492 26.8131625,93.4988459 C25.7289458,92.3985637 25.7289458,90.6127212 26.8131625,89.5096179 C29.0370544,87.2441652 31.9902276,86 35.1375061,86 C38.2820117,86 41.2351849,87.2441652 43.4590769,89.5096179 C45.8853929,91.9781995 49.8395948,91.9781995 52.2659108,89.5096179 C53.3501275,88.4065145 55.1026209,88.4065145 56.1868375,89.5096179 C57.2710542,90.6127212 57.2710542,92.3957425 56.1868375,93.4988459 C53.8936223,95.8348294 50.8766716,97 47.8624939,97 Z" id="Path" fill="#F1B501"></path>
                <path d="M64.8633111,79 C61.849403,79 58.8327222,77.8342315 56.539712,75.497049 C54.113613,73.0272004 50.1597648,73.0272004 47.7336658,75.497049 C46.6495461,76.6007185 44.8972094,76.6007185 43.8130898,75.497049 C42.7289701,74.3933795 42.7289701,72.6094432 43.8130898,71.5057737 C48.3991101,66.8314088 55.8742677,66.8314088 60.460288,71.5057737 C62.886387,73.9756223 66.8402352,73.9756223 69.2663342,71.5057737 C70.3504539,70.4021042 72.1027906,70.4021042 73.1869102,71.5057737 C74.2710299,72.6094432 74.2710299,74.3933795 73.1869102,75.497049 C70.8939001,77.8342315 67.8772193,79 64.8633111,79 Z" id="Path-2" fill="#F1B501"></path>
                <path d="M112.851314,27 C110.08402,27 107.479014,25.922465 105.523162,23.9683859 C103.662444,22.1092192 100.632131,22.1148023 98.7770092,23.9683859 C97.6829628,25.0598786 95.9145811,25.0598786 94.8205347,23.9683859 C93.7264884,22.8768932 93.7264884,21.1098474 94.8205347,20.0211462 C98.8693456,15.9901602 105.442018,15.9957433 109.479636,20.0211462 C111.284393,21.8216905 114.421032,21.8216905 116.222991,20.0211462 C117.317037,18.9296534 119.085419,18.9296534 120.179465,20.0211462 C121.273512,21.1098474 121.273512,22.8768932 120.179465,23.9683859 C118.223613,25.922465 115.618607,27 112.851314,27 Z" id="Path" fill="#F1B501"></path>
                <path d="M81.8633111,62 C78.849403,62 75.8327222,60.8342315 73.539712,58.497049 C71.113613,56.0272004 67.1597648,56.0272004 64.7336658,58.497049 C63.6495461,59.6007185 61.8972094,59.6007185 60.8130898,58.497049 C59.7289701,57.3933795 59.7289701,55.6094432 60.8130898,54.5057737 C65.3991101,49.8314088 72.8742677,49.8314088 77.460288,54.5057737 C79.886387,56.9756223 83.8402352,56.9756223 86.2663342,54.5057737 C87.3504539,53.4021042 89.1027906,53.4021042 90.1869102,54.5057737 C91.2710299,55.6094432 91.2710299,57.3933795 90.1869102,58.497049 C87.8939001,60.8342315 84.8772193,62 81.8633111,62 Z" id="Path" fill="#F1B501"></path>
                <path d="M98.8652668,45 C95.7207612,45 92.767588,43.7561538 90.5409231,41.4912821 C88.1146071,39.0233333 84.1604052,39.0233333 81.7340892,41.4912821 C80.6498725,42.5941026 78.8973791,42.5941026 77.8131625,41.4912821 C76.7289458,40.3884615 76.7289458,38.6058974 77.8131625,37.5030769 C82.399593,32.8323077 89.8754193,32.8323077 94.4618498,37.5030769 C96.8132967,39.8976923 100.903372,39.9005128 103.265911,37.5030769 C104.350127,36.4002564 106.102621,36.4002564 107.186838,37.5030769 C108.271054,38.6030769 108.271054,40.3884615 107.186838,41.4912821 C104.962946,43.7561538 102.009772,45 98.8652668,45 Z" id="Path" fill="#F1B501"></path>
            </g>
        </g>
    </g>
</svg>