<?xml version="1.0" encoding="UTF-8"?>
<svg width="63px" height="117px" viewBox="0 0 63 117" version="1.1" xmlns="http://www.w3.org/2000/svg" xmlns:xlink="http://www.w3.org/1999/xlink">
    <!-- Generator: Sketch 52.6 (67491) - http://www.bohemiancoding.com/sketch -->
    <title>Fb</title>
    <desc>Created with Sketch.</desc>
    <g id="Page-1" stroke="none" stroke-width="1" fill="none" fill-rule="evenodd">
        <g id="Fb" fill="#0C4349">
            <path d="M60.6276049,0.0243438095 L45.5167696,0 C28.5402644,0 17.5693009,11.3016136 17.5693009,28.7938579 L17.5693009,42.0697544 L2.37603187,42.0697544 C1.06315303,42.0697544 0,43.1384476 0,44.4566649 L0,63.691926 C0,65.0101433 1.06436529,66.0776193 2.37603187,66.0776193 L17.5693009,66.0776193 L17.5693009,114.614307 C17.5693009,115.932524 18.632454,117 19.9453328,117 L39.7682272,117 C41.081106,117 42.1442591,115.931307 42.1442591,114.614307 L42.1442591,66.0776193 L59.9087341,66.0776193 C61.2216129,66.0776193 62.2847659,65.0101433 62.2847659,63.691926 L62.2920395,44.4566649 C62.2920395,43.8237259 62.0411014,43.217565 61.5962016,42.7696389 C61.1513017,42.3217128 60.5451712,42.0697544 59.9147954,42.0697544 L42.1442591,42.0697544 L42.1442591,30.8156112 C42.1442591,25.4064168 43.4280436,22.6604351 50.4458235,22.6604351 L60.6251804,22.6567835 C61.936847,22.6567835 63,21.5880903 63,20.2710902 L63,2.41003714 C63,1.09425424 61.9380592,0.0267781904 60.6276049,0.0243438095 Z" id="Path"></path>
        </g>
    </g>
</svg>