<?xml version="1.0" encoding="UTF-8"?>
<svg width="118px" height="118px" viewBox="0 0 118 118" version="1.1" xmlns="http://www.w3.org/2000/svg" xmlns:xlink="http://www.w3.org/1999/xlink">
    <!-- Generator: Sketch 52.6 (67491) - http://www.bohemiancoding.com/sketch -->
    <title>Insta</title>
    <desc>Created with Sketch.</desc>
    <g id="Page-1" stroke="none" stroke-width="1" fill="none" fill-rule="evenodd">
        <g id="Insta" fill="#0C4349">
            <path d="M81.125,0 L36.875,0 C16.512625,0 0,16.512625 0,36.875 L0,81.125 C0,101.487375 16.512625,118 36.875,118 L81.125,118 C101.487375,118 118,101.487375 118,81.125 L118,36.875 C118,16.512625 101.487375,0 81.125,0 Z M106.9375,81.125 C106.9375,95.35875 95.35875,106.9375 81.125,106.9375 L36.875,106.9375 C22.64125,106.9375 11.0625,95.35875 11.0625,81.125 L11.0625,36.875 C11.0625,22.64125 22.64125,11.0625 36.875,11.0625 L81.125,11.0625 C95.35875,11.0625 106.9375,22.64125 106.9375,36.875 L106.9375,81.125 Z" id="Shape" fill-rule="nonzero"></path>
            <path d="M59.5,30 C43.208625,30 30,43.208625 30,59.5 C30,75.791375 43.208625,89 59.5,89 C75.791375,89 89,75.791375 89,59.5 C89,43.208625 75.791375,30 59.5,30 Z M59.5,77.9375 C49.33725,77.9375 41.0625,69.66275 41.0625,59.5 C41.0625,49.329875 49.33725,41.0625 59.5,41.0625 C69.66275,41.0625 77.9375,49.329875 77.9375,59.5 C77.9375,69.66275 69.66275,77.9375 59.5,77.9375 Z" id="Shape" fill-rule="nonzero"></path>
            <circle id="Oval" cx="91" cy="27" r="4"></circle>
        </g>
    </g>
</svg>