<?xml version="1.0" encoding="UTF-8"?>
<svg width="144px" height="34px" viewBox="0 0 144 34" version="1.1" xmlns="http://www.w3.org/2000/svg" xmlns:xlink="http://www.w3.org/1999/xlink">
    <!-- Generator: Sketch 52.6 (67491) - http://www.bohemiancoding.com/sketch -->
    <title>middle bread</title>
    <desc>Created with Sketch.</desc>
    <g id="Page-1" stroke="none" stroke-width="1" fill="none" fill-rule="evenodd">
        <g id="bread" transform="translate(72.000000, 60.000000) rotate(45.000000) translate(-72.000000, -60.000000) translate(-10.000000, -23.000000)">
            <g id="middle-bread" transform="translate(0.050253, 0.050253)">
                <path d="M28.1840898,99.4118851 C32.1130426,94.7158062 35.7561514,90.5730333 38.0681244,87.4778904 C52.2258058,68.5362898 69.7071235,51.1197915 88.9259239,37.3489333 C90.9520529,35.8968563 93.3032593,34.0319063 95.8534355,31.9984367 C98.8800183,27.4090869 101.713236,22.6989647 104.255005,17.8484095 C107.416103,11.8210259 107.063001,-0.185993964 96.5652429,0.00218623078 C86.2496401,0.187557766 72.3413715,13.5736296 64.3937894,19.2667826 C48.89096,30.3750315 34.786524,44.4239469 23.3667789,59.705864 C15.1361553,70.7270443 -13.9862963,98.1620316 8.13017677,108.273206 C10.6579338,110.806617 18.6139231,106.444769 28.1840898,99.4118851 Z" id="Path" fill="#EEAF4B"></path>
                <path d="M80.6119226,34 C77.8697331,34 75.124771,32.9737308 73.0397089,30.9239145 C71.023964,28.9448755 67.7494182,28.9448755 65.7336733,30.9239145 C64.6495519,31.9882945 62.8972125,31.9882945 61.8130911,30.9239145 C60.7289696,29.8595345 60.7289696,28.1391044 61.8130911,27.0747244 C65.9887607,22.9750919 72.7846215,22.9750919 76.9602911,27.0747244 C78.976036,29.0537634 82.2505818,29.0537634 84.2663267,27.0747244 C85.3504481,26.0103444 87.1027875,26.0103444 88.1869089,27.0747244 C89.2710304,28.1391044 89.2710304,29.8595345 88.1869089,30.9239145 C86.0990741,32.9737308 83.354112,34 80.6119226,34 Z" id="Path" fill="#FBD490"></path>
                <path d="M56.6119226,54 C53.8697331,54 51.124771,52.9761743 49.0397089,50.9257999 C47.0211913,48.943499 43.7466455,48.9489449 41.7336733,50.9257999 C40.6495519,51.9904697 38.8972125,51.9904697 37.8130911,50.9257999 C36.7289696,49.86113 36.7289696,48.1402314 37.8130911,47.0755616 C41.9887607,42.9748128 48.7846215,42.9748128 52.9602911,47.0755616 C54.976036,49.0496937 58.2505818,49.0496937 60.2663267,47.0755616 C61.3504481,46.0108918 63.1027875,46.0108918 64.1869089,47.0755616 C65.2710304,48.1402314 65.2710304,49.863853 64.1869089,50.9257999 C62.0963014,52.9761743 59.354112,54 56.6119226,54 Z" id="Path" fill="#FBD490"></path>
                <path d="M35.6110919,79 C32.8686308,79 30.1261698,77.9666781 28.0381282,75.8972862 C26.0859619,73.9625558 22.6918544,73.9570594 20.7341421,75.8972862 C19.6499133,76.971831 17.8974003,76.971831 16.8131716,75.8972862 C15.7289428,74.8254895 15.7289428,73.0858811 16.8131716,72.0113363 C20.8616984,67.9962212 27.9161179,67.9962212 31.9590988,72.0113363 C33.9778163,74.0120234 37.2526863,74.006527 39.2658579,72.0113363 C40.3500867,70.9367915 42.1025997,70.9367915 43.1868284,72.0113363 C44.2710572,73.0858811 44.2710572,74.8227413 43.1868284,75.8972862 C41.0987868,77.9666781 38.3563258,79 35.6110919,79 Z" id="Path" fill="#FBD490"></path>
            </g>
        </g>
    </g>
</svg>