<?xml version="1.0" encoding="iso-8859-1"?>
<!-- Generator: Adobe Illustrator 18.0.0, SVG Export Plug-In . SVG Version: 6.00 Build 0)  -->
<!DOCTYPE svg PUBLIC "-//W3C//DTD SVG 1.1//EN" "http://www.w3.org/Graphics/SVG/1.1/DTD/svg11.dtd">
<svg version="1.1" id="Capa_1" xmlns="http://www.w3.org/2000/svg" xmlns:xlink="http://www.w3.org/1999/xlink" x="0px" y="0px"
	 viewBox="0 0 84.842 84.842" style="enable-background:new 0 0 84.842 84.842;" xml:space="preserve">
<g>
	<path style="fill:#F16C21;" d="M11.649,44.902c0,0,5.289-12.076,19.763-8.924c14.475,3.152,12.905,1.741,24.47,0.081
		c11.564-1.661,18.379,10.435,18.379,10.435L11.649,44.902z"/>
	<path style="fill:#E8EDD1;" d="M74.623,42.042c-4.279-46.872-60.126-46.872-64.404,0c-0.287,3.036-1.336,5.791-2.658,5.833l0,0
		c-1.315,0.051-2.433-3.114-2.101-6.695c4.911-53.799,69.011-53.799,73.922,0c0.332,3.582-0.786,6.746-2.101,6.695l0,0
		C75.959,47.832,74.91,45.078,74.623,42.042z"/>
	<path style="fill:#E8EDD1;" d="M4.733,48.364c25.125,0,50.251,0,75.376,0c-3.856,10.794-7.685,22.257-11.519,34.079
		c-17.5,2.104-35.191,2.09-52.689-0.043C12.185,70.601,8.472,59.159,4.733,48.364z"/>
	<path style="fill:#F7CE18;" d="M81.813,50.54H3.029C1.363,50.54,0,49.177,0,47.512l0,0c0-1.666,1.363-3.029,3.029-3.029h78.785
		c1.666,0,3.029,1.363,3.029,3.029l0,0C84.842,49.177,83.479,50.54,81.813,50.54z"/>
	<path style="fill:#F16C21;" d="M51.41,44.483c-0.063,0.698,10.985,9.876,9.583,14.551c0,0,12.142-8.768,11.914-14.551
		C72.907,44.483,52.122,36.659,51.41,44.483z"/>
</g>
<g>
</g>
<g>
</g>
<g>
</g>
<g>
</g>
<g>
</g>
<g>
</g>
<g>
</g>
<g>
</g>
<g>
</g>
<g>
</g>
<g>
</g>
<g>
</g>
<g>
</g>
<g>
</g>
<g>
</g>
</svg>
