<?xml version="1.0" encoding="UTF-8"?>
<svg width="498px" height="935px" viewBox="0 0 498 935" version="1.1" xmlns="http://www.w3.org/2000/svg" xmlns:xlink="http://www.w3.org/1999/xlink">
    <!-- Generator: Sketch 52.6 (67491) - http://www.bohemiancoding.com/sketch -->
    <title>reef left</title>
    <desc>Created with Sketch.</desc>
    <g id="Page-1" stroke="none" stroke-width="1" fill="none" fill-rule="evenodd">
        <g id="reef-left" transform="translate(252.500000, 466.500000) rotate(90.000000) translate(-252.500000, -466.500000) translate(-220.000000, 205.000000)" fill="#056378">
            <path d="M721.170805,692.606069 C709.666492,678.255357 635.558333,649.67352 590.258333,626.73952 C609.577333,609.05852 613.396333,592.25952 614.933333,575.89352 C618.293333,540.13052 594.693333,510.90952 594.693333,510.90952 C594.693333,510.90952 565.884333,515.67252 558.970333,568.94252 C556.408333,588.68452 558.893333,602.68152 563.031333,612.49452 C536.868333,598.31852 511.277333,582.95652 486.947333,565.99852 C508.948333,561.72152 520.330333,551.03552 529.902333,539.55352 C552.325333,512.65552 549.466333,476.15152 549.466333,476.15152 C549.466333,476.15152 523.679333,464.09452 488.746333,503.10552 C470.531333,523.44752 466.611333,540.15852 467.022333,551.50552 C449.876333,538.50952 433.483333,524.62752 418.135333,509.67452 C416.723333,508.29852 415.374333,506.81252 413.996333,505.37652 C438.309333,501.59052 450.363333,490.39152 460.428333,478.31752 C482.850333,451.41952 479.991333,414.91452 479.991333,414.91452 C479.991333,414.91452 454.204333,402.85752 419.271333,441.86852 C403.255333,459.75352 398.298333,474.82852 397.609333,485.92452 C388.720333,473.92352 380.756333,460.58652 373.728333,446.19052 C396.143333,445.64552 408.243333,436.94052 418.655333,427.22752 C441.697333,405.73152 443.248333,372.81752 443.248333,372.81752 C443.248333,372.81752 421.580333,359.15352 386.005333,390.05952 C372.468333,401.81952 365.951333,412.70852 363.058333,421.69252 C356.527333,404.81752 351.145333,386.89252 346.953333,368.25452 C368.666333,372.34752 382.248333,366.49252 394.408333,359.29852 C421.529333,343.25252 430.111333,311.43852 430.111333,311.43852 C430.111333,311.43852 411.883333,293.44052 370.501333,315.98552 C355.264333,324.28652 346.625333,333.20152 341.773333,341.15752 C339.098333,324.28752 337.335333,307.03852 336.554333,289.62652 C355.663333,296.64152 369.117333,293.49552 381.492333,288.88652 C409.544333,278.43852 422.911333,250.13452 422.911333,250.13452 C422.911333,250.13452 408.890333,230.24552 366.413333,244.37552 C351.442333,249.35552 342.032333,255.87752 336.102333,262.23652 C336.259333,250.40852 336.907333,238.58352 337.966333,226.82152 C357.458333,234.18352 371.086333,231.00252 383.615333,226.33652 C411.667333,215.88852 425.035333,187.58452 425.035333,187.58452 C425.035333,187.58452 411.013333,167.69552 368.536333,181.82552 C356.260333,185.90952 347.730333,191.02952 341.781333,196.24652 C343.868333,183.25252 346.537333,170.44452 349.802333,157.91552 C366.938333,169.60852 380.898333,169.74952 394.145333,168.19052 C423.875333,164.69252 443.572333,140.36552 443.572333,140.36552 C443.572333,140.36552 434.667333,117.71952 390.051333,121.37352 C375.523333,122.56352 365.301333,126.15952 358.093333,130.46252 C361.232333,121.37852 364.717333,112.51452 368.549333,103.89852 C383.255333,115.64052 395.885333,116.72652 407.985333,116.22552 C435.170333,115.09952 454.694333,94.4075201 454.694333,94.4075201 C454.694333,94.4075201 448.181333,73.2705201 407.494333,73.5145201 C396.315333,73.5815201 387.798333,75.4125201 381.303333,78.0265201 C384.924333,71.3745201 388.750333,64.8105201 392.734333,58.3335201 C406.408333,69.2495201 418.152333,70.2605201 429.403333,69.7945201 C454.683333,68.7475201 472.839333,49.5055201 472.839333,49.5055201 C472.839333,49.5055201 466.783333,29.8505201 428.947333,30.0765201 C421.262333,30.1225201 414.981333,31.0895201 409.758333,32.5595201 C414.535333,25.7855201 419.454333,19.1325201 424.487333,12.6215201 C438.015333,23.2825201 449.657333,24.2795201 460.815333,23.8175201 C486.094333,22.7705201 504.251333,3.52852012 504.251333,3.52852012 C504.251333,3.52852012 498.194333,-16.1264799 460.359333,-15.9004799 C455.296333,-15.8704799 450.858333,-15.4304799 446.896333,-14.7274799 C453.273333,-22.0974799 459.724333,-29.2344799 466.181333,-36.1254799 C476.873333,-25.1324799 486.998333,-22.9334799 496.861333,-22.0754799 C519.096333,-20.1414799 537.151333,-34.9294799 537.151333,-34.9294799 C537.151333,-34.9294799 534.068333,-52.8094799 500.940333,-56.8764799 C495.477333,-57.5474799 490.787333,-57.5594799 486.658333,-57.1834799 C493.282333,-63.7514799 499.826333,-70.0184799 506.221333,-75.9714799 C515.218333,-66.9724799 523.751333,-65.1334799 532.067333,-64.4104799 C551.163333,-62.7494799 566.668333,-75.4504799 566.668333,-75.4504799 C566.668333,-75.4504799 564.020333,-90.8054799 535.569333,-94.2994799 C532.448333,-94.6824799 529.641333,-94.7974799 527.038333,-94.7594799 C532.767333,-99.7704799 538.265333,-104.45548 543.476333,-108.80248 C551.819333,-100.55948 559.738333,-98.8634799 567.455333,-98.1914799 C585.325333,-96.6364799 599.836333,-108.52248 599.836333,-108.52248 C599.836333,-108.52248 597.358333,-122.89248 570.733333,-126.16148 C568.869333,-126.39048 567.133333,-126.51048 565.471333,-126.57248 C574.567333,-133.67848 581.682333,-138.93248 586.098333,-142.12248 C594.507333,-133.72548 602.484333,-132.00748 610.257333,-131.33148 C628.128333,-129.77648 642.638333,-141.66248 642.638333,-141.66248 C642.638333,-141.66248 640.160333,-156.03248 613.535333,-159.30148 C598.610333,-161.13448 590.280333,-157.24948 585.837333,-153.48148 L579.918333,-162.13948 C581.116333,-167.00648 581.724333,-172.59448 580.821333,-178.46948 C579.411333,-187.64648 576.550333,-197.01348 562.640333,-206.33548 C562.640333,-206.33548 548.118333,-199.71748 553.126333,-173.36348 C555.392333,-161.44048 559.597333,-154.62848 563.528333,-150.71048 C557.738333,-146.37748 550.625333,-140.91448 542.508333,-134.41148 C544.466333,-140.94948 545.681333,-148.82548 544.400333,-157.17048 C542.689333,-168.30748 539.217333,-179.67548 522.335333,-190.98848 C522.335333,-190.98848 504.712333,-182.95648 510.790333,-150.97448 C514.091333,-133.60748 520.778333,-125.16148 526.210333,-121.03448 C519.157333,-115.10648 511.641333,-108.60148 503.815333,-101.57448 C504.970333,-111.09548 504.798333,-123.21948 499.929333,-135.11148 C494.592333,-148.14448 487.047333,-160.94348 463.223333,-169.75148 C463.223333,-169.75148 444.157333,-154.83548 460.899333,-117.74948 C469.564333,-98.5544799 479.612333,-90.0824799 487.297333,-86.3624799 C478.380333,-77.9414799 469.218333,-68.9284799 459.992333,-59.3784799 C461.022333,-68.7534799 460.708333,-80.4804799 455.996333,-91.9864799 C450.659333,-105.01948 443.114333,-117.81848 419.290333,-126.62648 C419.290333,-126.62648 400.224333,-111.71048 416.966333,-74.6244799 C426.024333,-54.5574799 436.596333,-46.2064799 444.396333,-42.7574799 C436.946333,-34.5764799 429.532333,-26.0644799 422.246333,-17.2534799 C423.065333,-26.5464799 422.500333,-37.8294799 417.967333,-48.9014799 C412.495333,-62.2624799 404.761333,-75.3824799 380.338333,-84.4134799 C380.338333,-84.4134799 360.792333,-69.1224799 377.955333,-31.1034799 C387.587333,-9.76647988 398.893333,-1.34047988 406.961333,1.94852012 C400.073333,10.9635201 393.386333,20.2525201 386.979333,29.7765201 C385.918333,20.0705201 382.954333,8.17952012 375.476333,-2.44147988 C367.164333,-14.2464799 356.698333,-25.3124799 330.878333,-28.6714799 C330.878333,-28.6714799 315.232333,-9.40847988 340.438333,23.8285201 C353.737333,41.3635201 365.932333,47.4435201 374.488333,49.2785201 C368.743333,58.7345201 363.334333,68.4015201 358.320333,78.2455201 C355.536333,67.5735201 349.892333,53.5705201 338.364333,42.5555201 C327.210333,31.8985201 313.952333,22.4625201 286.191333,24.2795201 C286.191333,24.2795201 273.773333,47.7065201 307.066333,77.3365201 C325.573333,93.8065201 340.163333,97.1985201 349.480333,96.9685201 C344.174333,109.05952 339.526333,121.62152 335.517333,134.55552 C332.407333,124.57052 326.836333,112.65052 316.752333,103.01552 C305.599333,92.3585201 292.340333,82.9225201 264.579333,84.7395201 C264.579333,84.7395201 252.161333,108.16652 285.454333,137.79652 C304.819333,155.02952 319.893333,157.94452 329.127333,157.37252 C325.306333,172.93552 322.387333,188.90952 320.277333,205.08952 C315.275333,195.42652 307.003333,183.56652 294.017333,175.51252 C280.908333,167.38152 265.990333,160.87952 239.198333,168.37652 C239.198333,168.37652 231.873333,193.85952 270.555333,215.99552 C293.673333,229.22352 309.252333,228.59552 318.052333,225.95052 C316.757333,241.12752 316.182333,256.40852 316.312333,271.66652 C308.766333,262.11952 296.828333,250.44552 280.252333,244.43552 C264.264333,238.63852 246.696333,235.00652 219.493333,249.17252 C219.493333,249.17252 217.372333,278.32552 264.125333,293.43052 C291.370333,302.23252 307.884333,298.44552 316.936333,293.75452 C317.988333,313.59352 320.247333,333.23752 323.631333,352.37252 C314.278333,344.46952 299.879333,335.12452 281.965333,332.62752 C265.122333,330.27952 247.182333,330.37952 223.518333,349.89052 C223.518333,349.89052 227.502333,378.84852 276.374333,383.90452 C304.606333,386.82552 319.950333,379.83752 327.890333,373.41352 C332.512333,393.85052 338.490333,413.49452 345.764333,431.95152 C333.169333,425.61752 313.963333,418.75652 292.651333,421.10352 C273.306333,423.23352 253.432333,428.38652 232.664333,456.68252 C232.664333,456.68252 245.223333,487.68852 300.862333,479.56052 C333.015333,474.86452 348.073333,462.79152 355.072333,453.43152 C362.462333,468.93452 370.832333,483.37452 380.214333,496.37452 C366.488333,493.01352 344.992333,490.34452 323.733333,498.23552 C305.487333,505.00852 287.464333,514.84252 274.205333,547.34152 C274.205333,547.34152 293.931333,574.35952 345.920333,552.93852 C377.935333,539.74852 389.090333,523.15452 392.946333,512.34352 C396.529333,516.45652 400.187333,520.45152 404.006333,524.17252 C418.027333,537.83452 432.841333,550.61552 448.257333,562.64152 C432.545333,561.30652 409.077333,562.13152 387.479333,573.96352 C368.434333,584.39752 350.133333,598.17352 340.762333,636.19952 C340.762333,636.19952 366.916333,662.82752 420.837333,630.75552 C455.838333,609.93752 464.643333,588.69752 466.519333,576.34752 C496.167333,597.75452 527.691333,616.65152 559.901333,633.80652 C542.774333,633.28652 520.359333,635.59852 499.497333,647.02752 C478.043333,658.78152 457.425333,674.30152 446.869333,717.13752 C446.869333,717.13752 476.332333,747.13552 537.076333,711.00452 C577.561333,686.92352 586.934333,662.34652 588.692333,648.62152 C632.017333,670.18452 705.395446,700.413435 711.438439,702.16608 C717.481432,703.918725 732.675118,706.956781 721.170805,692.606069 Z" id="Path" transform="translate(472.419317, 261.243754) rotate(-89.000000) translate(-472.419317, -261.243754) "></path>
        </g>
    </g>
</svg>