<?xml version="1.0" encoding="UTF-8"?>
<svg width="144px" height="34px" viewBox="0 0 144 34" version="1.1" xmlns="http://www.w3.org/2000/svg" xmlns:xlink="http://www.w3.org/1999/xlink">
    <!-- Generator: Sketch 52.6 (67491) - http://www.bohemiancoding.com/sketch -->
    <title>top bread</title>
    <desc>Created with Sketch.</desc>
    <g id="Page-1" stroke="none" stroke-width="1" fill="none" fill-rule="evenodd">
        <g id="bread" transform="translate(72.000000, -26.000000) rotate(45.000000) translate(-72.000000, 26.000000) translate(-10.000000, -109.000000)">
            <g id="top-bread" transform="translate(57.949747, 56.949747)">
                <path d="M97.8701349,0.726793754 C95.3424422,-1.80661723 87.3894577,2.55523117 77.8167322,9.58811488 C77.4440236,10.0346918 77.0909313,10.4475647 76.7266297,10.882907 C69.7572596,20.8171361 62.0032398,30.2177199 53.7223839,38.95546 C53.3076406,39.3936109 52.5005724,40.2025048 51.4328884,41.2529435 C43.5639735,49.715435 35.0505251,57.6246205 26.0802984,64.7895112 C20.3635654,69.8591418 14.2741238,75.0944834 8.27996107,79.9759338 C5.96804698,83.6271913 3.74860946,87.3346221 1.74495058,91.1515905 C-1.4160665,97.1789741 -1.06297416,109.185994 9.43451696,108.997814 C19.7498573,108.812442 33.657772,95.4263704 41.6023495,89.7332174 C57.1047843,78.6249685 71.2088614,64.5760531 82.6283158,49.294136 C90.8643346,38.2729557 119.986045,10.8379684 97.8701349,0.726793754 Z" id="Path" fill="#EEAF4B"></path>
                <path d="M84.6119226,39 C81.7505075,39 79.0609992,37.8964381 77.0397089,35.8897124 C75.0849631,33.9543614 71.6884191,33.9543614 69.7336733,35.8897124 C68.6495519,36.9630773 66.8972125,36.9630773 65.8130911,35.8897124 C64.7289696,34.8190927 64.7289696,33.0813946 65.8130911,32.0080296 C69.8556716,27.9973235 76.9066198,27.9973235 80.9602911,32.0080296 C82.9150369,33.9433807 86.3115809,33.9433807 88.2663267,32.0080296 C89.3504481,30.9346647 91.1027875,30.9346647 92.1869089,32.0080296 C93.2710304,33.0813946 93.2710304,34.8163475 92.1869089,35.8897124 C90.1600733,37.8964381 87.4705649,39 84.6119226,39 Z" id="Path" fill="#FBD490"></path>
                <path d="M60.6119226,59 C57.7505075,59 55.0609992,57.9065687 53.0397089,55.9182647 C51.023964,53.9381205 47.7494182,53.9435605 45.7336733,55.9182647 C44.6495519,56.9817761 42.8972125,56.9817761 41.8130911,55.9182647 C40.7289696,54.8547532 40.7289696,53.1357269 41.8130911,52.0722154 C45.9887607,47.9759282 52.7790761,47.9759282 56.9602911,52.0722154 C58.9150369,53.9898001 62.3115809,53.9898001 64.2663267,52.0722154 C65.3504481,51.0087039 67.1027875,51.0087039 68.1869089,52.0722154 C69.2710304,53.1357269 69.2710304,54.8547532 68.1869089,55.9182647 C66.1600733,57.9065687 63.4705649,59 60.6119226,59 Z" id="Path" fill="#FBD490"></path>
                <path d="M38.6119226,83 C35.8697331,83 33.124771,81.9737308 31.0397089,79.9239145 C29.023964,77.9503199 25.7494182,77.9503199 23.7336733,79.9239145 C22.6495519,80.9882945 20.8972125,80.9882945 19.8130911,79.9239145 C18.7289696,78.8595345 18.7289696,77.1363822 19.8130911,76.0747244 C23.9887607,71.9750919 30.7846215,71.9750919 34.9602911,76.0747244 C36.9788087,78.0537634 40.2533545,78.0537634 42.2663267,76.0747244 C43.3504481,75.0103444 45.1027875,75.0103444 46.1869089,76.0747244 C47.2710304,77.1391044 47.2710304,78.8595345 46.1869089,79.9239145 C44.0990741,81.9737308 41.3568847,83 38.6119226,83 Z" id="Path" fill="#FBD490"></path>
            </g>
        </g>
    </g>
</svg>