<?xml version="1.0" encoding="UTF-8"?>
<svg width="88px" height="118px" viewBox="0 0 88 118" version="1.1" xmlns="http://www.w3.org/2000/svg" xmlns:xlink="http://www.w3.org/1999/xlink">
    <!-- Generator: Sketch 52.6 (67491) - http://www.bohemiancoding.com/sketch -->
    <title>Yelp</title>
    <desc>Created with Sketch.</desc>
    <g id="Page-1" stroke="none" stroke-width="1" fill="none" fill-rule="evenodd">
        <g id="Yelp" fill="#0C4349" fill-rule="nonzero">
            <path d="M14.7734491,5.37452129 C20.7353704,0.696701593 32.1977708,-0.644011846 36.9141554,0.269001112 C41.6349374,1.17625287 44.1001766,3.81186449 44.130408,7.02112699 L44.4024913,47.9407327 C44.4236533,51.1543847 42.7524025,54.108234 40.6853943,54.5060311 C38.6073928,54.8950492 35.5496167,52.9850744 33.8687468,50.251248 L12.3609775,15.164171 C10.6927499,12.4267782 7.33018557,11.2193954 14.7734491,5.37452129 Z M7.63222547,83.1836364 L29.2856555,75.5346838 C32.3030313,74.4666671 35.0054502,71.4949855 35.309139,68.9125964 C35.6021095,66.3313047 33.4086787,63.2660722 30.4336269,62.0907875 L7.55994477,53.0371995 C4.58269433,51.8624635 1.14784933,54.648415 0.241729637,59.2071699 C0.241729637,59.2071699 -0.302162046,75.0825668 0.241729637,78.3694683 C0.791942446,81.6536264 4.61539929,84.2565912 7.63222547,83.1836364 Z M45.4028782,87.0057808 C45.4663643,83.7830755 43.7428955,81.0034339 41.5728254,80.8048097 C39.4019308,80.6037164 35.9555429,82.4527871 33.8973292,84.9070581 L18.7928608,102.987348 C16.7360213,105.444363 17.7578451,111.21489 20.7554331,112.307323 L36.5494539,117.783481 C39.5558365,118.875365 44.8501919,115.643881 44.9117542,112.431326 L45.4028782,87.0057808 Z M82.9495433,82.7970873 L64.0098002,77.3618071 C60.9391071,76.4808922 57.4528686,76.5640181 56.2730166,77.5615287 C55.0915157,78.5475168 55.3842113,81.6640514 56.9312382,84.4768885 L68.884213,106.31403 C70.4298658,109.125769 76.6108278,108.644298 78.3131346,105.915684 C78.3131346,105.915684 85.5178443,95.3052003 86.8428073,91.3283265 C88.1674955,87.3423994 86.0177629,83.6780022 82.9495433,82.7970873 Z M87.5620415,52.0915398 C86.7089643,49.3291818 80.7871684,41.184766 77.5804336,38.4086908 C74.3764472,35.6265801 70.711843,35.9752699 68.6453844,38.4177442 L56.4395645,52.9321262 C54.3720066,55.3743262 53.8190455,59.248047 55.1978755,61.5259156 C56.5756062,63.8037841 60.2514785,65.0942928 63.3708168,64.3952673 L84.4833783,60.4875279 C88.2944677,59.5747893 88.4291352,54.8538978 87.5620415,52.0915398 Z"></path>
        </g>
    </g>
</svg>